<svg width="900" height="700" viewBox="0 0 900 700" fill="none" xmlns="http://www.w3.org/2000/svg">
  <rect width="900" height="700" rx="40" fill="#120F26"/>
  <rect width="900" height="700" rx="40" fill="url(#bg)"/>
  <circle cx="450" cy="188" r="176" fill="url(#glow)"/>
  <ellipse cx="451" cy="600" rx="220" ry="30" fill="#E2D1BD"/>
  <ellipse cx="451" cy="592" rx="220" ry="30" fill="#FFF4E4"/>
  <rect x="246" y="334" width="410" height="178" rx="34" fill="url(#cake)"/>
  <rect x="255" y="314" width="392" height="48" rx="24" fill="url(#icingTop)"/>
  <g fill="#FFF3E5">
    <circle cx="289" cy="382" r="12"/>
    <circle cx="349" cy="401" r="12"/>
    <circle cx="409" cy="382" r="12"/>
    <circle cx="469" cy="401" r="12"/>
    <circle cx="529" cy="382" r="12"/>
    <circle cx="589" cy="401" r="12"/>
  </g>
  <rect x="272" y="432" width="358" height="22" rx="11" fill="url(#ribbon)"/>
  <g>
    <rect x="333" y="222" width="28" height="110" rx="14" fill="#FFBDD0"/>
    <rect x="437" y="196" width="28" height="136" rx="14" fill="#FFD7A2"/>
    <rect x="541" y="222" width="28" height="110" rx="14" fill="#FFBDD0"/>
    <path d="M347 209C356 194 369 195 375 211C381 226 369 239 355 236C344 232 340 220 347 209Z" fill="url(#flame)"/>
    <path d="M451 183C460 168 473 169 479 185C485 200 473 213 459 210C448 206 444 194 451 183Z" fill="url(#flame)"/>
    <path d="M555 209C564 194 577 195 583 211C589 226 577 239 563 236C552 232 548 220 555 209Z" fill="url(#flame)"/>
  </g>
  <g opacity="0.26">
    <circle cx="203" cy="153" r="10" fill="#FFF6E8"/>
    <circle cx="238" cy="113" r="6" fill="#FFF6E8"/>
    <circle cx="694" cy="131" r="9" fill="#FFF6E8"/>
    <circle cx="731" cy="169" r="5" fill="#FFF6E8"/>
    <circle cx="676" cy="206" r="7" fill="#FFF6E8"/>
  </g>
  <defs>
    <linearGradient id="bg" x1="115" y1="81" x2="772" y2="623" gradientUnits="userSpaceOnUse">
      <stop stop-color="#1A1435"/>
      <stop offset="0.58" stop-color="#312056"/>
      <stop offset="1" stop-color="#1A2749"/>
    </linearGradient>
    <radialGradient id="glow" cx="0" cy="0" r="1" gradientUnits="userSpaceOnUse" gradientTransform="translate(450 188) rotate(90) scale(176)">
      <stop stop-color="#FFD990"/>
      <stop offset="1" stop-color="#FFD990" stop-opacity="0"/>
    </radialGradient>
    <linearGradient id="cake" x1="451" y1="334" x2="451" y2="512" gradientUnits="userSpaceOnUse">
      <stop stop-color="#FFBDD2"/>
      <stop offset="1" stop-color="#F184A3"/>
    </linearGradient>
    <linearGradient id="icingTop" x1="451" y1="314" x2="451" y2="362" gradientUnits="userSpaceOnUse">
      <stop stop-color="#FFF7EB"/>
      <stop offset="1" stop-color="#FFE0C3"/>
    </linearGradient>
    <linearGradient id="ribbon" x1="272" y1="443" x2="630" y2="443" gradientUnits="userSpaceOnUse">
      <stop stop-color="#FFE39F"/>
      <stop offset="0.5" stop-color="#F2C66D"/>
      <stop offset="1" stop-color="#FFD9A6"/>
    </linearGradient>
    <radialGradient id="flame" cx="0" cy="0" r="1" gradientUnits="userSpaceOnUse" gradientTransform="translate(464 183) rotate(90) scale(40 28)">
      <stop stop-color="#FFF6BE"/>
      <stop offset="0.56" stop-color="#FFD35D"/>
      <stop offset="1" stop-color="#FF8C35"/>
    </radialGradient>
  </defs>
</svg>
